<svg width="320" height="320" viewBox="0 0 320 320" fill="none" xmlns="http://www.w3.org/2000/svg">
  <rect width="320" height="320" rx="160" fill="#F5F6F4"/>
  <circle cx="160" cy="160" r="64" fill="#4A5538" fill-opacity="0.85"/>
  <path d="M160 64C144 88 144 120 160 136C176 120 176 88 160 64Z" fill="#D7DBC6"/>
  <path d="M160 256C144 232 144 200 160 184C176 200 176 232 160 256Z" fill="#D7DBC6"/>
  <path d="M64 160C88 176 120 176 136 160C120 144 88 144 64 160Z" fill="#D7DBC6"/>
  <path d="M256 160C232 144 200 144 184 160C200 176 232 176 256 160Z" fill="#D7DBC6"/>
  <circle cx="160" cy="160" r="24" fill="#F9FAF7"/>
</svg>
