<svg width="96" height="96" viewBox="0 0 96 96" fill="none" xmlns="http://www.w3.org/2000/svg">
  <rect x="8" y="20" width="80" height="56" rx="18" fill="#F5F6F4"/>
  <path d="M24 56C29.5228 56 34 51.5228 34 46C34 40.4772 29.5228 36 24 36C18.4772 36 14 40.4772 14 46C14 51.5228 18.4772 56 24 56Z" fill="#4A5538"/>
  <path d="M56 44C56 49.5228 51.5228 54 46 54C40.4772 54 36 49.5228 36 44C36 38.4772 40.4772 34 46 34C51.5228 34 56 38.4772 56 44Z" fill="#D7DBC6"/>
  <path d="M80 62C80 68.6274 74.6274 74 68 74C61.3726 74 56 68.6274 56 62C56 55.3726 61.3726 50 68 50C74.6274 50 80 55.3726 80 62Z" fill="#BFC7AA"/>
</svg>
