<?xml version="1.0" standalone="no"?>
<!DOCTYPE svg PUBLIC "-//W3C//DTD SVG 20010904//EN"
 "http://www.w3.org/TR/2001/REC-SVG-20010904/DTD/svg10.dtd">
<svg version="1.0" xmlns="http://www.w3.org/2000/svg"
 width="300.000000pt" height="300.000000pt" viewBox="0 0 300.000000 300.000000"
 preserveAspectRatio="xMidYMid meet">
<metadata>
Created by potrace 1.10, written by Peter Selinger 2001-2011
</metadata>
<g transform="translate(0.000000,300.000000) scale(0.100000,-0.100000)"
fill="#000000" stroke="none">
<path d="M817 2908 c-65 -48 -14 -266 158 -673 266 -627 357 -897 385 -1144
26 -218 -7 -379 -128 -635 -75 -159 -88 -220 -53 -255 45 -45 111 -24 195 62
138 140 311 442 580 1010 460 972 655 1489 606 1606 -22 54 -72 54 -152 1 -78
-52 -146 -168 -313 -535 -171 -374 -248 -508 -327 -565 -84 -61 -159 -50 -235
33 -58 64 -118 177 -258 487 -112 249 -204 425 -263 502 -65 85 -156 135 -195
106z"/>
<path d="M553 545 c-225 -113 -143 -454 110 -455 139 0 241 101 241 240 0 74
-22 125 -76 177 -71 68 -183 84 -275 38z"/>
</g>
</svg>
