<svg width="1000" height="1000" viewBox="0 0 1000 1000" fill="none" xmlns="http://www.w3.org/2000/svg">
  <style>
    :root { --icon-fill: #000; }
    @media (prefers-color-scheme: dark) {
      :root { --icon-fill: #fff; }
    }
  </style>
<path d="M272.333 30.6667C250.667 46.6667 267.667 119.333 325 255C413.667 464 444 554 453.333 636.333C462 709 451 762.667 410.667 848C385.667 901 381.333 921.333 393 933C408 948 430 941 458 912.333C504 865.667 561.667 765 651.333 575.667C804.667 251.667 869.667 79.3333 853.333 40.3333C846 22.3333 829.333 22.3333 802.667 40C776.667 57.3333 754 96 698.333 218.333C641.333 343 615.667 387.667 589.333 406.667C561.333 427 536.333 423.333 511 395.667C491.667 374.333 471.667 336.667 425 233.333C387.667 150.333 357 91.6667 337.333 66C315.667 37.6667 285.333 21 272.333 30.6667Z" fill="var(--icon-fill)"/>
<path d="M184.333 818.333C109.333 856 136.667 969.667 221 970C267.333 970 301.333 936.333 301.333 890C301.333 865.333 294 848.333 276 831C252.333 808.333 215 803 184.333 818.333Z" fill="var(--icon-fill)"/>
</svg>
