<svg width="267" height="127" viewBox="0 0 267 127" fill="none" xmlns="http://www.w3.org/2000/svg">
<rect x="101" width="65" height="65" rx="32.5" fill="#52525B"/>
<g clip-path="url(#clip0_0_1)">
<path d="M127.878 17.3122C128.528 18.0732 129.898 20.7322 131.038 23.3379C133.253 28.4516 134.132 29.7219 135.468 29.7219C136.705 29.7219 137.813 28.419 139.278 25.227C142.242 18.7779 142.731 17.8008 143.545 16.9214C144.49 15.9442 145.63 15.7488 145.923 16.5305C146.477 17.9311 144.034 24.3476 138.985 34.9333C134.75 44.0858 132.08 47.9618 130.484 47.9618C129.45 47.8808 129.207 46.8278 130.224 45.1281C133.025 39.591 132.666 36.399 128.139 25.683C125.724 20.1791 124.98 17.4425 125.305 16.5631C125.664 15.6837 126.738 15.9768 127.878 17.3122Z" fill="#FAFAFA"/>
<path d="M126.734 46.1328C126.734 47.7163 125.451 49 123.867 49C122.284 49 121 47.7163 121 46.1328C121 44.5493 122.284 43.2656 123.867 43.2656C125.451 43.2656 126.734 44.5493 126.734 46.1328Z" fill="#FAFAFA"/>
</g>
<path d="M18.1492 119H14.2642L8.69918 101.255H12.3392L13.9842 107.135C14.5208 109.002 14.9758 110.647 15.3492 112.07C15.7225 113.493 15.9558 114.45 16.0492 114.94L16.1892 115.675C16.4925 114.205 17.2625 111.347 18.4992 107.1L20.2142 101.255H23.5392L25.2892 107.1C25.8492 109.037 26.3275 110.728 26.7242 112.175C27.1208 113.598 27.3775 114.543 27.4942 115.01L27.6342 115.71C27.9142 114.333 28.7075 111.463 30.0142 107.1L31.7642 101.255H35.2292L29.5942 119H25.6742L24.0292 113.19C23.5392 111.417 23.1075 109.853 22.7342 108.5C22.3842 107.123 22.1508 106.19 22.0342 105.7L21.8942 105C21.5675 106.517 20.8558 109.247 19.7592 113.19L18.1492 119ZM46.6706 118.51C44.9673 123.06 42.3656 125.335 38.8656 125.335C38.2356 125.335 37.699 125.277 37.2556 125.16V122.22C37.629 122.313 38.0256 122.36 38.4456 122.36C40.709 122.36 42.2956 121.112 43.2056 118.615L36.1356 101.255H39.9506L42.1556 107.03L44.9206 114.52C45.1306 113.82 45.9706 111.323 47.4406 107.03L49.4356 101.255H53.0756L46.6706 118.51ZM58.4973 110.285C58.4973 112.058 58.929 113.493 59.7923 114.59C60.679 115.687 61.7873 116.235 63.1173 116.235C64.4707 116.235 65.614 115.722 66.5473 114.695C67.4807 113.668 67.9473 112.105 67.9473 110.005C67.9473 107.975 67.4573 106.47 66.4773 105.49C65.5207 104.51 64.4357 104.02 63.2223 104.02C61.8457 104.02 60.714 104.568 59.8273 105.665C58.9407 106.738 58.4973 108.278 58.4973 110.285ZM71.4123 119H67.9473V116.305C66.7107 118.265 64.9023 119.245 62.5223 119.245C60.189 119.245 58.3457 118.37 56.9923 116.62C55.639 114.847 54.9623 112.712 54.9623 110.215C54.9623 107.438 55.674 105.21 57.0973 103.53C58.5207 101.85 60.3523 101.01 62.5923 101.01C64.9023 101.01 66.6873 101.99 67.9473 103.95V94.255H71.4123V119ZM81.9851 116.445C83.1051 116.445 83.9801 116.142 84.6101 115.535C85.2634 114.905 85.5901 114.088 85.5901 113.085V111.09H82.9301C81.6234 111.09 80.6317 111.347 79.9551 111.86C79.3017 112.373 78.9751 113.027 78.9751 113.82C78.9751 114.637 79.2317 115.278 79.7451 115.745C80.2584 116.212 81.0051 116.445 81.9851 116.445ZM85.6951 116.9C84.7851 118.393 83.1867 119.14 80.9001 119.14C79.2201 119.14 77.8667 118.662 76.8401 117.705C75.8367 116.725 75.3351 115.488 75.3351 113.995C75.3351 112.292 75.9767 110.973 77.2601 110.04C78.5434 109.083 80.3401 108.605 82.6501 108.605H85.5901V107.59C85.5901 106.377 85.2984 105.467 84.7151 104.86C84.1317 104.23 83.1634 103.915 81.8101 103.915C79.9201 103.915 78.2051 104.44 76.6651 105.49V102.165C78.0417 101.372 79.8617 100.975 82.1251 100.975C86.7684 100.975 89.0901 103.227 89.0901 107.73V119H85.6951V116.9ZM97.1409 119H93.7109V101.255H97.1409V104.37C98.0042 102.177 99.5559 101.08 101.796 101.08C102.123 101.08 102.484 101.115 102.881 101.185V104.545C102.391 104.335 101.843 104.23 101.236 104.23C100.046 104.23 99.0659 104.755 98.2959 105.805C97.5259 106.855 97.1409 108.103 97.1409 109.55V119ZM117.786 119H104.661V116.375L113.271 104.125H104.976V101.255H117.331V103.705L108.616 116.095H117.786V119ZM134.934 118.055C133.627 118.802 131.901 119.175 129.754 119.175C127.001 119.175 124.807 118.347 123.174 116.69C121.541 115.033 120.724 112.863 120.724 110.18C120.724 107.333 121.471 105.105 122.964 103.495C124.457 101.862 126.359 101.045 128.669 101.045C130.932 101.045 132.729 101.757 134.059 103.18C135.389 104.58 136.054 106.61 136.054 109.27C136.054 109.993 135.984 110.752 135.844 111.545H124.189C124.422 113.085 125.076 114.263 126.149 115.08C127.222 115.897 128.576 116.305 130.209 116.305C132.099 116.305 133.674 115.862 134.934 114.975V118.055ZM128.739 103.88C127.572 103.88 126.569 104.312 125.729 105.175C124.889 106.015 124.364 107.24 124.154 108.85H132.729V108.22C132.682 106.89 132.321 105.84 131.644 105.07C130.967 104.277 129.999 103.88 128.739 103.88ZM154.758 119H151.328V107.8C151.328 106.563 151.013 105.618 150.383 104.965C149.776 104.312 148.959 103.985 147.933 103.985C146.719 103.985 145.681 104.463 144.818 105.42C143.954 106.353 143.523 107.672 143.523 109.375V119H140.093V101.255H143.523V104.3C144.573 102.107 146.416 101.01 149.053 101.01C150.803 101.01 152.191 101.547 153.218 102.62C154.244 103.693 154.758 105.152 154.758 106.995V119ZM162.975 119H159.51V101.255H162.975V119ZM163.395 95.83C163.395 96.4133 163.185 96.915 162.765 97.335C162.345 97.755 161.832 97.965 161.225 97.965C160.618 97.965 160.105 97.7667 159.685 97.37C159.288 96.95 159.09 96.4367 159.09 95.83C159.09 95.2233 159.288 94.71 159.685 94.29C160.105 93.87 160.618 93.66 161.225 93.66C161.832 93.66 162.345 93.87 162.765 94.29C163.185 94.71 163.395 95.2233 163.395 95.83ZM173.689 116.445C174.809 116.445 175.684 116.142 176.314 115.535C176.968 114.905 177.294 114.088 177.294 113.085V111.09H174.634C173.328 111.09 172.336 111.347 171.659 111.86C171.006 112.373 170.679 113.027 170.679 113.82C170.679 114.637 170.936 115.278 171.449 115.745C171.963 116.212 172.709 116.445 173.689 116.445ZM177.399 116.9C176.489 118.393 174.891 119.14 172.604 119.14C170.924 119.14 169.571 118.662 168.544 117.705C167.541 116.725 167.039 115.488 167.039 113.995C167.039 112.292 167.681 110.973 168.964 110.04C170.248 109.083 172.044 108.605 174.354 108.605H177.294V107.59C177.294 106.377 177.003 105.467 176.419 104.86C175.836 104.23 174.868 103.915 173.514 103.915C171.624 103.915 169.909 104.44 168.369 105.49V102.165C169.746 101.372 171.566 100.975 173.829 100.975C178.473 100.975 180.794 103.227 180.794 107.73V119H177.399V116.9Z" fill="#313C42"/>
<rect x="185" y="89" width="82" height="38" rx="4" fill="#52525B"/>
<path d="M193.284 115.135C193.726 115.564 193.947 116.095 193.947 116.728C193.947 117.361 193.726 117.903 193.284 118.355C192.864 118.807 192.345 119.033 191.726 119.033C191.085 119.033 190.544 118.807 190.102 118.355C189.682 117.903 189.472 117.361 189.472 116.728C189.472 116.095 189.682 115.564 190.102 115.135C190.544 114.683 191.085 114.457 191.726 114.457C192.345 114.457 192.864 114.683 193.284 115.135Z" fill="#FAFAFA"/>
<path d="M205.184 112.935C202.997 117.008 200.94 118.704 197.793 118.704C197.196 118.704 196.688 118.648 196.268 118.535V115.687C196.622 115.778 196.998 115.823 197.395 115.823C199.539 115.823 201.041 115.455 201.903 113.037L195.208 101.271H198.821C198.821 101.271 199.89 103.136 200.557 104.341C201.752 106.497 203.527 109.912 203.527 109.912L206.315 104.341L207.803 101.271H211.25L205.184 112.935Z" fill="#FAFAFA"/>
<path d="M226.101 103.542C227.493 105.192 228.189 107.305 228.189 109.881C228.189 112.458 227.471 114.582 226.035 116.254C224.621 117.927 222.665 118.763 220.168 118.763C217.694 118.763 215.749 117.938 214.335 116.288C212.921 114.638 212.214 112.548 212.214 110.017C212.214 107.441 212.943 105.305 214.401 103.61C215.86 101.893 217.782 101.034 220.168 101.034C222.732 101.034 224.709 101.87 226.101 103.542ZM215.594 109.915C215.594 111.61 216.003 113.045 216.821 114.22C217.638 115.373 218.754 115.949 220.168 115.949C221.671 115.949 222.809 115.384 223.582 114.254C224.378 113.124 224.775 111.689 224.775 109.949C224.775 108.164 224.4 106.706 223.649 105.576C222.897 104.424 221.726 103.847 220.135 103.847C218.699 103.847 217.583 104.435 216.788 105.61C215.992 106.763 215.594 108.198 215.594 109.915Z" fill="#FAFAFA"/>
<path d="M246.003 117C246.003 119.644 245.263 121.633 243.782 122.966C242.324 124.322 240.446 125 238.148 125C235.982 125 234.159 124.627 232.679 123.881V120.525C234.093 121.475 235.805 121.949 237.816 121.949C241.108 121.949 242.755 120.288 242.755 116.966V115.203C241.672 117.056 240.048 117.983 237.882 117.983C235.982 117.983 234.358 117.271 233.01 115.847C231.662 114.401 230.988 112.367 230.988 109.746C230.988 107.215 231.618 105.136 232.878 103.508C234.137 101.859 235.805 101.034 237.882 101.034C240.114 101.034 241.738 102.006 242.755 103.949V101.271H246.003V117ZM234.402 109.678C234.402 111.463 234.8 112.819 235.595 113.746C236.413 114.672 237.374 115.136 238.479 115.136C239.628 115.136 240.622 114.684 241.462 113.78C242.324 112.853 242.755 111.565 242.755 109.915C242.755 107.881 242.346 106.379 241.528 105.407C240.733 104.435 239.761 103.949 238.612 103.949C237.308 103.949 236.28 104.48 235.529 105.542C234.778 106.582 234.402 107.96 234.402 109.678Z" fill="#FAFAFA"/>
<path d="M255.8 115.983C256.861 115.983 257.689 115.689 258.286 115.102C258.904 114.492 259.214 113.701 259.214 112.729V110.797H256.695C255.457 110.797 254.518 111.045 253.878 111.542C253.259 112.04 252.95 112.672 252.95 113.441C252.95 114.232 253.193 114.853 253.679 115.305C254.165 115.757 254.872 115.983 255.8 115.983ZM259.313 116.424C258.452 117.87 256.938 118.593 254.773 118.593C253.182 118.593 251.9 118.13 250.928 117.203C249.978 116.254 249.503 115.056 249.503 113.61C249.503 111.96 250.11 110.684 251.326 109.78C252.541 108.853 254.242 108.39 256.43 108.39H259.214V107.407C259.214 106.232 258.938 105.35 258.385 104.763C257.833 104.153 256.916 103.847 255.634 103.847C253.844 103.847 252.22 104.356 250.762 105.373V102.153C252.066 101.384 253.789 101 255.933 101C260.33 101 262.528 103.181 262.528 107.542V118.458H259.313V116.424Z" fill="#FAFAFA"/>
<defs>
<clipPath id="clip0_0_1">
<rect width="25" height="33" fill="white" transform="translate(121 16)"/>
</clipPath>
</defs>
</svg>
