<svg width="218" height="127" viewBox="0 0 267 127" fill="none" xmlns="http://www.w3.org/2000/svg">
<rect x="76.5" width="65" height="65" rx="32.5" fill="#52525B"/>
<g clip-path="url(#clip0_0_1)">
<path d="M103.378 17.3122C104.028 18.0732 105.398 20.7322 106.538 23.3379C108.753 28.4516 109.632 29.7219 110.968 29.7219C112.205 29.7219 113.313 28.419 114.778 25.227C117.742 18.7779 118.231 17.8008 119.045 16.9214C119.99 15.9442 121.13 15.7488 121.423 16.5305C121.977 17.9311 119.534 24.3476 114.485 34.9333C110.25 44.0858 107.58 47.9618 105.984 47.9618C104.95 47.8808 104.707 46.8278 105.724 45.1281C108.525 39.591 108.166 36.399 103.639 25.683C101.224 20.1791 100.48 17.4425 100.805 16.5631C101.164 15.6837 102.238 15.9768 103.378 17.3122Z" fill="#FAFAFA"/>
<path d="M102.234 46.1328C102.234 47.7163 100.951 49 99.3672 49C97.7837 49 96.5 47.7163 96.5 46.1328C96.5 44.5493 97.7837 43.2656 99.3672 43.2656C100.951 43.2656 102.234 44.5493 102.234 46.1328Z" fill="#FAFAFA"/>
</g>
<path d="M18.6072 119H14.7222L9.15719 101.255H12.7972L14.4422 107.135C14.9789 109.002 15.4339 110.647 15.8072 112.07C16.1805 113.493 16.4139 114.45 16.5072 114.94L16.6472 115.675C16.9505 114.205 17.7205 111.347 18.9572 107.1L20.6722 101.255H23.9972L25.7472 107.1C26.3072 109.037 26.7855 110.728 27.1822 112.175C27.5789 113.598 27.8355 114.543 27.9522 115.01L28.0922 115.71C28.3722 114.333 29.1655 111.463 30.4722 107.1L32.2222 101.255H35.6872L30.0522 119H26.1322L24.4872 113.19C23.9972 111.417 23.5655 109.853 23.1922 108.5C22.8422 107.123 22.6089 106.19 22.4922 105.7L22.3522 105C22.0255 106.517 21.3139 109.247 20.2172 113.19L18.6072 119ZM47.1286 118.51C45.4253 123.06 42.8236 125.335 39.3236 125.335C38.6936 125.335 38.157 125.277 37.7136 125.16V122.22C38.087 122.313 38.4836 122.36 38.9036 122.36C41.167 122.36 42.7536 121.112 43.6636 118.615L36.5936 101.255H40.4086L42.6136 107.03L45.3786 114.52C45.5886 113.82 46.4286 111.323 47.8986 107.03L49.8936 101.255H53.5336L47.1286 118.51ZM60.0404 120.575C60.0404 122.232 59.597 123.527 58.7104 124.46C57.847 125.393 56.6104 125.86 55.0004 125.86C54.2537 125.86 53.402 125.685 52.4454 125.335V122.43C53.192 122.803 53.9387 122.99 54.6854 122.99C55.9687 122.99 56.6104 122.162 56.6104 120.505V101.255H60.0404V120.575ZM60.4604 95.83C60.4604 96.4133 60.2504 96.915 59.8304 97.335C59.4104 97.755 58.897 97.965 58.2904 97.965C57.707 97.965 57.2054 97.7667 56.7854 97.37C56.3654 96.95 56.1554 96.4367 56.1554 95.83C56.1554 95.2233 56.3537 94.71 56.7504 94.29C57.1704 93.87 57.6837 93.66 58.2904 93.66C58.897 93.66 59.4104 93.87 59.8304 94.29C60.2504 94.71 60.4604 95.2233 60.4604 95.83ZM70.6169 116.445C71.7369 116.445 72.6119 116.142 73.2419 115.535C73.8952 114.905 74.2219 114.088 74.2219 113.085V111.09H71.5619C70.2552 111.09 69.2636 111.347 68.5869 111.86C67.9336 112.373 67.6069 113.027 67.6069 113.82C67.6069 114.637 67.8636 115.278 68.3769 115.745C68.8902 116.212 69.6369 116.445 70.6169 116.445ZM74.3269 116.9C73.4169 118.393 71.8186 119.14 69.5319 119.14C67.8519 119.14 66.4986 118.662 65.4719 117.705C64.4686 116.725 63.9669 115.488 63.9669 113.995C63.9669 112.292 64.6086 110.973 65.8919 110.04C67.1752 109.083 68.9719 108.605 71.2819 108.605H74.2219V107.59C74.2219 106.377 73.9302 105.467 73.3469 104.86C72.7636 104.23 71.7952 103.915 70.4419 103.915C68.5519 103.915 66.8369 104.44 65.2969 105.49V102.165C66.6736 101.372 68.4936 100.975 70.7569 100.975C75.4002 100.975 77.7219 103.227 77.7219 107.73V119H74.3269V116.9ZM94.5577 119H81.4327V116.375L90.0427 104.125H81.7477V101.255H94.1027V103.705L85.3877 116.095H94.5577V119ZM101.031 110.285C101.031 112.058 101.462 113.493 102.326 114.59C103.212 115.687 104.321 116.235 105.651 116.235C107.004 116.235 108.147 115.722 109.081 114.695C110.014 113.668 110.481 112.105 110.481 110.005C110.481 107.975 109.991 106.47 109.011 105.49C108.054 104.51 106.969 104.02 105.756 104.02C104.379 104.02 103.247 104.568 102.361 105.665C101.474 106.738 101.031 108.278 101.031 110.285ZM113.946 119H110.481V116.305C109.244 118.265 107.436 119.245 105.056 119.245C102.722 119.245 100.879 118.37 99.5255 116.62C98.1722 114.847 97.4955 112.712 97.4955 110.215C97.4955 107.438 98.2072 105.21 99.6305 103.53C101.054 101.85 102.886 101.01 105.126 101.01C107.436 101.01 109.221 101.99 110.481 103.95V94.255H113.946V119ZM127.143 118.51C125.44 123.06 122.838 125.335 119.338 125.335C118.708 125.335 118.172 125.277 117.728 125.16V122.22C118.102 122.313 118.498 122.36 118.918 122.36C121.182 122.36 122.768 121.112 123.678 118.615L116.608 101.255H120.423L122.628 107.03L125.393 114.52C125.603 113.82 126.443 111.323 127.913 107.03L129.908 101.255H133.548L127.143 118.51Z" fill="#313C42"/>
<rect x="136" y="89" width="82" height="38" rx="4" fill="#52525B"/>
<path d="M144.312 114.749C144.754 115.178 144.974 115.709 144.974 116.342C144.974 116.975 144.754 117.517 144.312 117.969C143.892 118.421 143.373 118.647 142.754 118.647C142.113 118.647 141.572 118.421 141.13 117.969C140.71 117.517 140.5 116.975 140.5 116.342C140.5 115.709 140.71 115.178 141.13 114.749C141.572 114.297 142.113 114.071 142.754 114.071C143.373 114.071 143.892 114.297 144.312 114.749Z" fill="#FAFAFA"/>
<path d="M156.156 112.935C153.968 117.008 151.912 118.704 148.765 118.704C148.168 118.704 147.66 118.648 147.24 118.535V115.687C147.594 115.778 147.969 115.823 148.367 115.823C150.51 115.823 152.013 115.455 152.875 113.037L146.18 101.271H149.792C149.792 101.271 150.862 103.136 151.529 104.341C152.723 106.497 154.499 109.912 154.499 109.912L157.287 104.341L158.774 101.271H162.221L156.156 112.935Z" fill="#FAFAFA"/>
<path d="M177.073 103.542C178.465 105.192 179.161 107.305 179.161 109.881C179.161 112.458 178.443 114.582 177.007 116.254C175.592 117.927 173.637 118.763 171.14 118.763C168.665 118.763 166.721 117.938 165.307 116.288C163.893 114.638 163.186 112.548 163.186 110.017C163.186 107.441 163.915 105.305 165.373 103.61C166.831 101.893 168.754 101.034 171.14 101.034C173.703 101.034 175.681 101.87 177.073 103.542ZM166.566 109.915C166.566 111.61 166.975 113.045 167.793 114.22C168.61 115.373 169.726 115.949 171.14 115.949C172.643 115.949 173.781 115.384 174.554 114.254C175.349 113.124 175.747 111.689 175.747 109.949C175.747 108.164 175.372 106.706 174.62 105.576C173.869 104.424 172.698 103.847 171.107 103.847C169.671 103.847 168.555 104.435 167.759 105.61C166.964 106.763 166.566 108.198 166.566 109.915Z" fill="#FAFAFA"/>
<path d="M196.974 117C196.974 119.644 196.234 121.633 194.754 122.966C193.295 124.322 191.417 125 189.119 125C186.954 125 185.131 124.627 183.651 123.881V120.525C185.065 121.475 186.777 121.949 188.788 121.949C192.08 121.949 193.726 120.288 193.726 116.966V115.203C192.644 117.056 191.02 117.983 188.854 117.983C186.954 117.983 185.33 117.271 183.982 115.847C182.634 114.401 181.96 112.367 181.96 109.746C181.96 107.215 182.59 105.136 183.849 103.508C185.109 101.859 186.777 101.034 188.854 101.034C191.086 101.034 192.71 102.006 193.726 103.949V101.271H196.974V117ZM185.374 109.678C185.374 111.463 185.772 112.819 186.567 113.746C187.385 114.672 188.346 115.136 189.451 115.136C190.6 115.136 191.594 114.684 192.434 113.78C193.295 112.853 193.726 111.565 193.726 109.915C193.726 107.881 193.318 106.379 192.5 105.407C191.705 104.435 190.732 103.949 189.583 103.949C188.28 103.949 187.252 104.48 186.501 105.542C185.75 106.582 185.374 107.96 185.374 109.678Z" fill="#FAFAFA"/>
<path d="M206.772 115.983C207.832 115.983 208.661 115.689 209.258 115.102C209.876 114.492 210.186 113.701 210.186 112.729V110.797H207.667C206.429 110.797 205.49 111.045 204.849 111.542C204.231 112.04 203.921 112.672 203.921 113.441C203.921 114.232 204.164 114.853 204.65 115.305C205.137 115.757 205.844 115.983 206.772 115.983ZM210.285 116.424C209.423 117.87 207.91 118.593 205.744 118.593C204.153 118.593 202.872 118.13 201.9 117.203C200.949 116.254 200.474 115.056 200.474 113.61C200.474 111.96 201.082 110.684 202.297 109.78C203.513 108.853 205.214 108.39 207.401 108.39H210.186V107.407C210.186 106.232 209.909 105.35 209.357 104.763C208.805 104.153 207.888 103.847 206.606 103.847C204.816 103.847 203.192 104.356 201.734 105.373V102.153C203.037 101.384 204.761 101 206.904 101C211.301 101 213.5 103.181 213.5 107.542V118.458H210.285V116.424Z" fill="#FAFAFA"/>
<defs>
<clipPath id="clip0_0_1">
<rect width="25" height="33" fill="white" transform="translate(96.5 16)"/>
</clipPath>
</defs>
</svg>
